<?xml version="1.0" standalone="no"?>
<!DOCTYPE svg PUBLIC "-//W3C//DTD SVG 20010904//EN"
 "http://www.w3.org/TR/2001/REC-SVG-20010904/DTD/svg10.dtd">
<svg version="1.0" xmlns="http://www.w3.org/2000/svg"
 width="800.000000pt" height="800.000000pt" viewBox="0 0 800.000000 800.000000"
 preserveAspectRatio="xMidYMid meet">
<metadata>
Created by potrace 1.14, written by Peter Selinger 2001-2017
</metadata>
<g transform="translate(0.000000,800.000000) scale(0.100000,-0.100000)"
fill="#000000" stroke="none">
<path d="M3755 7994 c-16 -2 -79 -9 -140 -15 -287 -28 -605 -92 -838 -170
-115 -39 -282 -101 -345 -130 -35 -16 -66 -29 -68 -29 -3 0 -67 -31 -142 -68
-630 -315 -1157 -780 -1549 -1367 -97 -145 -229 -382 -287 -515 -16 -36 -40
-90 -53 -120 -44 -100 -50 -115 -68 -165 -9 -27 -21 -59 -25 -70 -7 -17 -37
-116 -56 -187 -4 -12 15 -29 73 -62 43 -25 82 -47 87 -49 9 -3 5 -27 -28 -167
-72 -301 -91 -473 -91 -855 0 -375 7 -455 65 -760 85 -440 261 -882 508 -1275
486 -774 1264 -1364 2127 -1615 261 -76 400 -103 695 -135 357 -38 805 -18
1120 50 752 163 1367 484 1895 991 l90 87 85 -49 c47 -27 90 -49 95 -49 6 0
17 8 26 17 8 10 48 56 90 103 263 298 463 614 654 1035 81 178 176 477 229
715 134 608 125 1228 -25 1835 -253 1023 -912 1907 -1838 2465 -89 53 -390
210 -405 210 -2 0 -33 13 -68 29 -112 51 -349 135 -485 172 -220 60 -387 92
-648 125 -122 15 -607 28 -680 18z m-748 -3671 c197 -113 360 -207 362 -209 3
-3 -56 -116 -109 -209 -13 -22 -46 -80 -73 -130 -27 -49 -57 -103 -67 -120 -9
-16 -29 -50 -42 -75 -47 -85 -70 -125 -78 -135 -4 -5 -22 -37 -39 -70 -37 -68
-174 -310 -262 -461 -33 -55 -59 -108 -59 -117 0 -16 23 -17 265 -17 185 0
265 -3 265 -11 0 -6 -9 -23 -19 -38 -11 -15 -42 -66 -69 -112 -83 -141 -404
-674 -411 -682 -7 -7 -1541 -11 -1548 -3 -3 2 7 23 22 46 14 23 34 56 44 73
10 18 60 104 111 192 51 88 101 176 112 195 11 19 24 40 28 45 4 6 21 35 37
65 17 30 80 141 140 245 61 105 121 211 135 235 27 48 158 274 188 325 10 17
59 102 110 190 51 88 101 172 111 187 11 14 19 29 19 32 0 5 84 149 318 546
114 194 131 220 141 220 5 0 171 -93 368 -207z m2973 -1718 c388 -224 708
-412 712 -419 16 -28 86 -144 121 -197 20 -33 37 -61 37 -62 0 -1 -282 -3
-628 -5 -345 -1 -1170 -5 -1834 -8 -1137 -6 -1208 -5 -1208 11 0 10 31 74 69
144 37 69 90 167 116 216 27 50 56 104 65 120 9 17 36 66 60 110 94 176 121
226 138 255 l17 31 815 -2 c699 -1 815 1 818 13 1 8 -20 60 -47 115 -28 55
-55 112 -60 126 l-10 26 57 -33 c31 -19 374 -217 762 -441z"/>
</g>
</svg>
